<?xml version="1.0" encoding="utf-8"?>
<!-- Generator: Adobe Illustrator 22.1.0, SVG Export Plug-In . SVG Version: 6.00 Build 0)  -->
<svg version="1.1" id="图层_1" xmlns="http://www.w3.org/2000/svg" xmlns:xlink="http://www.w3.org/1999/xlink" x="0px" y="0px"
	 viewBox="0 0 28.3 28.3" style="enable-background:new 0 0 28.3 28.3;" xml:space="preserve">
<style type="text/css">
	.st0{fill:none;stroke:#000000;stroke-miterlimit:10;}
	.st1{enable-background:new    ;}
</style>
<g id="图层_1_1_">
	<g id="图层_2_1_">
	</g>
	<g id="图层_3">
		<polygon class="st0" points="11.3,2.8 5.7,8.5 5.7,25.5 22.7,25.5 22.7,2.8 		"/>
		<polyline class="st0" points="5.7,8.5 11.3,8.5 11.3,2.8 		"/>
	</g>
</g>
<g id="图层_2_2_">
	<g class="st1">
		<path d="M11.4,17.6c0,0.3,0,0.6-0.1,0.8c-0.1,0.3-0.2,0.5-0.4,0.7c-0.2,0.2-0.4,0.3-0.7,0.4c-0.3,0.1-0.6,0.2-1,0.2H8.5v1.8H7.4
			v-5.7h1.7c0.4,0,0.7,0,1,0.1c0.3,0.1,0.5,0.2,0.7,0.4c0.2,0.2,0.3,0.3,0.4,0.6C11.3,17.1,11.4,17.3,11.4,17.6z M10.2,17.7
			c0-0.2,0-0.3-0.1-0.4c0-0.1-0.1-0.2-0.2-0.3c-0.1-0.1-0.2-0.2-0.4-0.2c-0.1,0-0.3-0.1-0.5-0.1H8.5v2.1h0.6c0.2,0,0.4,0,0.5-0.1
			c0.1-0.1,0.3-0.1,0.4-0.2c0.1-0.1,0.2-0.2,0.2-0.3C10.2,18,10.2,17.8,10.2,17.7z"/>
		<path d="M16.2,19.8c0,0.3-0.1,0.6-0.2,0.8c-0.1,0.2-0.3,0.4-0.5,0.6c-0.2,0.2-0.5,0.3-0.7,0.3c-0.3,0.1-0.6,0.1-0.9,0.1
			c-0.3,0-0.6,0-0.9-0.1s-0.6-0.1-0.8-0.2v-1.1c0.1,0,0.3,0.1,0.4,0.1s0.3,0.1,0.4,0.1c0.1,0,0.3,0.1,0.4,0.1s0.3,0,0.4,0
			c0.2,0,0.4,0,0.5-0.1s0.3-0.1,0.4-0.1s0.2-0.1,0.2-0.2S15,20.1,15,20c0-0.1,0-0.3-0.1-0.4c-0.1-0.1-0.2-0.2-0.3-0.3
			s-0.3-0.1-0.5-0.2C14,19.1,13.8,19,13.6,19s-0.3-0.1-0.5-0.2c-0.2-0.1-0.3-0.2-0.5-0.3s-0.2-0.3-0.3-0.5c-0.1-0.2-0.1-0.4-0.1-0.6
			c0-0.2,0-0.4,0.1-0.6s0.2-0.4,0.4-0.5c0.2-0.2,0.4-0.3,0.7-0.4c0.3-0.1,0.6-0.1,1-0.1c0.1,0,0.2,0,0.4,0c0.1,0,0.2,0,0.4,0
			c0.1,0,0.2,0,0.4,0.1c0.1,0,0.2,0,0.3,0.1v1c-0.1,0-0.2-0.1-0.3-0.1s-0.2-0.1-0.3-0.1c-0.1,0-0.2,0-0.4-0.1s-0.2,0-0.3,0
			c-0.2,0-0.4,0-0.5,0c-0.1,0-0.2,0.1-0.3,0.1c-0.1,0.1-0.1,0.1-0.2,0.2c0,0.1-0.1,0.2-0.1,0.3c0,0.1,0,0.2,0.1,0.3
			c0.1,0.1,0.2,0.2,0.3,0.2c0.1,0.1,0.3,0.1,0.5,0.2c0.2,0.1,0.3,0.1,0.5,0.2c0.2,0.1,0.4,0.1,0.5,0.2c0.2,0.1,0.3,0.2,0.5,0.3
			c0.1,0.1,0.2,0.3,0.3,0.4C16.2,19.3,16.2,19.6,16.2,19.8z"/>
		<path d="M21.4,18.6c0,0.4-0.1,0.8-0.2,1.2c-0.1,0.4-0.3,0.7-0.5,0.9c-0.2,0.3-0.5,0.5-0.9,0.6c-0.4,0.1-0.8,0.2-1.3,0.2h-1.5v-5.7
			h1.7c0.4,0,0.8,0.1,1.2,0.2c0.3,0.1,0.6,0.3,0.8,0.5s0.4,0.5,0.5,0.9C21.3,17.7,21.4,18.1,21.4,18.6z M20.2,18.6
			c0-0.3,0-0.6-0.1-0.8c0-0.2-0.1-0.4-0.3-0.6c-0.1-0.2-0.3-0.3-0.5-0.4s-0.4-0.1-0.7-0.1h-0.5v3.9h0.5c0.5,0,0.9-0.2,1.2-0.5
			S20.2,19.3,20.2,18.6z"/>
	</g>
</g>
</svg>
