<?xml version="1.0" encoding="utf-8"?>
<!-- Generator: Adobe Illustrator 22.1.0, SVG Export Plug-In . SVG Version: 6.00 Build 0)  -->
<svg version="1.1" id="图层_1" xmlns="http://www.w3.org/2000/svg" xmlns:xlink="http://www.w3.org/1999/xlink" x="0px" y="0px"
	 viewBox="0 0 16 16" style="enable-background:new 0 0 16 16;" xml:space="preserve">
<style type="text/css">
	.st0{fill:none;stroke:#000000;stroke-width:1.5;stroke-miterlimit:10;}
</style>
<path d="M12.9,0.1c-0.2-0.2-0.5-0.2-0.7,0l-1.6,1.6l3.7,3.7l1.6-1.6c0.2-0.2,0.2-0.5,0-0.7c0,0,0,0,0,0C15.9,3.1,12.9,0.1,12.9,0.1z
	 M13.5,6.2L9.8,2.5L3.3,9h0.2C3.8,9,4,9.2,4,9.5V10h0.5C4.8,10,5,10.2,5,10.5V11h0.5C5.8,11,6,11.2,6,11.5V12h0.5
	C6.8,12,7,12.2,7,12.5v0.2L13.5,6.2z M6,13.7c0-0.1,0-0.1,0-0.2V13H5.5C5.2,13,5,12.8,5,12.5V12H4.5C4.2,12,4,11.8,4,11.5V11H3.5
	C3.2,11,3,10.8,3,10.5V10H2.5c-0.1,0-0.1,0-0.2,0l-0.2,0.2c0,0-0.1,0.1-0.1,0.2l-2,5c-0.1,0.3,0,0.5,0.3,0.6c0.1,0,0.3,0,0.4,0l5-2
	c0.1,0,0.1-0.1,0.2-0.1L6,13.7L6,13.7z"/>
<line class="st0" x1="10.5" y1="13.2" x2="16" y2="13.2"/>
<line class="st0" x1="13.3" y1="10.5" x2="13.3" y2="16"/>
</svg>
