<?xml version="1.0" encoding="utf-8"?>
<!-- Generator: Adobe Illustrator 22.1.0, SVG Export Plug-In . SVG Version: 6.00 Build 0)  -->
<svg version="1.1" id="图层_1" xmlns="http://www.w3.org/2000/svg" xmlns:xlink="http://www.w3.org/1999/xlink" x="0px" y="0px"
	 viewBox="0 0 16 16" style="enable-background:new 0 0 16 16;" xml:space="preserve">
<style type="text/css">
	.st0{fill:none;stroke:#000000;stroke-width:1.5;stroke-miterlimit:10;}
</style>
<path d="M12.854,0.146c-0.195-0.195-0.512-0.195-0.707,0L10.5,1.793L14.207,5.5l1.647-1.646c0.196-0.195,0.196-0.512,0.001-0.707
	c0,0-0.001-0.001-0.001-0.001C15.854,3.146,12.854,0.146,12.854,0.146z M13.5,6.207L9.793,2.5L3.293,9H3.5C3.776,9,4,9.224,4,9.5V10
	h0.5C4.776,10,5,10.224,5,10.5V11h0.5C5.776,11,6,11.224,6,11.5V12h0.5C6.776,12,7,12.224,7,12.5v0.207L13.5,6.207z M6.032,13.675
	C6.011,13.619,6,13.56,6,13.5V13H5.5C5.224,13,5,12.776,5,12.5V12H4.5C4.224,12,4,11.776,4,11.5V11H3.5C3.224,11,3,10.776,3,10.5V10
	H2.5c-0.06,0-0.119-0.011-0.175-0.032l-0.179,0.178c-0.048,0.048-0.085,0.105-0.11,0.168l-2,5c-0.103,0.256,0.022,0.547,0.278,0.65
	c0.119,0.048,0.252,0.048,0.372,0l5-2c0.063-0.025,0.12-0.062,0.168-0.11l0.178-0.178L6.032,13.675z"/>
<line class="st0" x1="10.5" y1="13.217" x2="16.001" y2="13.217"/>
</svg>
