<?xml version="1.0" encoding="utf-8"?>
<!-- Generator: Adobe Illustrator 22.1.0, SVG Export Plug-In . SVG Version: 6.00 Build 0)  -->
<svg version="1.1" xmlns="http://www.w3.org/2000/svg" xmlns:xlink="http://www.w3.org/1999/xlink" x="0px" y="0px"
	 viewBox="0 0 28.3 28.3" style="enable-background:new 0 0 28.3 28.3;" xml:space="preserve">
<style type="text/css">
	.st0{fill:none;stroke:#000000;stroke-width:2;stroke-miterlimit:10;}
</style>
<g id="图层_1">
	<path class="st0" d="M14.173,2.126c-6.626,0-12.047,5.421-12.047,12.047S7.547,26.22,14.173,26.22S26.22,20.799,26.22,14.173
		S20.799,2.126,14.173,2.126z"/>
</g>
<g id="图层_2">
	<g>
		<path d="M11.893,20.308v-5.001H8.771v5.001H7.042V8.821h1.729v4.614h3.122V8.821h1.729v11.488H11.893z"/>
		<path d="M21.228,16.837c0,0.627-0.093,1.172-0.277,1.635c-0.186,0.463-0.444,0.846-0.777,1.147s-0.729,0.525-1.188,0.672
			c-0.459,0.146-0.961,0.22-1.505,0.22c-0.482,0-0.949-0.035-1.398-0.105c-0.45-0.07-0.896-0.188-1.335-0.352v-2.136
			c0.215,0.094,0.44,0.182,0.674,0.264s0.47,0.154,0.706,0.215c0.237,0.063,0.473,0.11,0.707,0.146s0.462,0.053,0.682,0.053
			c0.328,0,0.607-0.035,0.837-0.105s0.417-0.167,0.563-0.29s0.251-0.27,0.316-0.439s0.099-0.357,0.099-0.563
			c0-0.281-0.064-0.517-0.193-0.707s-0.299-0.359-0.51-0.506s-0.451-0.278-0.721-0.396s-0.544-0.243-0.822-0.378
			c-0.279-0.135-0.554-0.287-0.823-0.457s-0.51-0.381-0.721-0.633c-0.211-0.252-0.381-0.552-0.51-0.9
			c-0.128-0.35-0.193-0.77-0.193-1.262c0-0.451,0.065-0.879,0.197-1.283c0.131-0.404,0.337-0.757,0.618-1.059
			s0.643-0.542,1.083-0.721s0.973-0.268,1.597-0.268c0.183,0,0.373,0.01,0.572,0.031s0.396,0.047,0.591,0.079
			s0.382,0.07,0.563,0.114s0.346,0.089,0.496,0.136v1.978c-0.15-0.07-0.314-0.135-0.492-0.193c-0.179-0.059-0.362-0.11-0.552-0.154
			c-0.19-0.044-0.381-0.078-0.573-0.101s-0.375-0.035-0.549-0.035c-0.305,0-0.563,0.031-0.773,0.092s-0.384,0.146-0.521,0.255
			c-0.136,0.108-0.234,0.242-0.295,0.4s-0.092,0.334-0.092,0.527c0,0.24,0.064,0.447,0.193,0.62
			c0.129,0.172,0.301,0.329,0.514,0.465c0.213,0.139,0.455,0.268,0.725,0.387c0.27,0.121,0.546,0.25,0.829,0.387
			c0.284,0.139,0.561,0.295,0.83,0.471s0.511,0.39,0.724,0.642c0.214,0.252,0.385,0.55,0.514,0.892
			C21.163,15.963,21.228,16.368,21.228,16.837z"/>
	</g>
</g>
</svg>
