<?xml version="1.0" encoding="utf-8"?>
<!-- Generator: Adobe Illustrator 22.1.0, SVG Export Plug-In . SVG Version: 6.00 Build 0)  -->
<svg version="1.1" xmlns="http://www.w3.org/2000/svg" xmlns:xlink="http://www.w3.org/1999/xlink" x="0px" y="0px"
	 viewBox="0 0 28.346 28.346" style="enable-background:new 0 0 28.346 28.346;" xml:space="preserve">
<style type="text/css">
	.st0{fill:none;stroke:#000000;stroke-width:2;stroke-miterlimit:10;}
	.st1{display:none;}
	.st2{display:inline;fill:none;stroke:#000000;stroke-miterlimit:10;enable-background:new    ;}
	.st3{fill-opacity:0.5;stroke:#000000;stroke-miterlimit:10;enable-background:new    ;}
	.st4{display:inline;fill:none;stroke:#000000;stroke-linejoin:round;stroke-miterlimit:10;}
</style>
<g id="图层_1">
	<g id="图层_2_1_">
		<circle class="st0" cx="14.173" cy="14.173" r="11.339"/>
	</g>
</g>
<g id="图层_2" class="st1">
	<path class="st2" d="M19.843,7.087c-7.045,0-12.756,5.711-12.756,12.756s5.711,12.756,12.756,12.756s12.756-5.711,12.756-12.756
		S26.888,7.087,19.843,7.087z M19.843,26.93c-3.914,0-7.087-3.173-7.087-7.087s3.173-7.087,7.087-7.087s7.087,3.173,7.087,7.087
		S23.757,26.93,19.843,26.93z"/>
</g>
<g id="图层_3">
	<path class="st3" d="M7.087,19.843c0,1.236,0.185,2.428,0.513,3.558c1.855,1.324,4.12,2.111,6.573,2.111
		c0.447,0,0.886-0.033,1.319-0.083c-1.663-1.297-2.737-3.314-2.737-5.587c0-3.914,3.173-7.087,7.087-7.087
		c2.272,0,4.29,1.074,5.587,2.737c0.05-0.433,0.083-0.872,0.083-1.319c0-2.453-0.787-4.718-2.111-6.573
		c-1.13-0.328-2.322-0.513-3.558-0.513C12.798,7.087,7.087,12.798,7.087,19.843z"/>
</g>
<g id="图层_5" class="st1">
	<path class="st4" d="M7.087,19.843c0-7.045,5.711-12.756,12.756-12.756c1.236,0,2.428,0.185,3.558,0.513
		c-2.056-2.881-5.419-4.766-9.228-4.766c-6.262,0-11.339,5.077-11.339,11.339c0,3.809,1.885,7.172,4.766,9.228
		C7.272,22.27,7.087,21.079,7.087,19.843z"/>
</g>
<g id="图层_6" class="st1">
	<path class="st2" d="M25.429,15.492c-1.297-1.663-3.314-2.737-5.587-2.737c-3.914,0-7.087,3.173-7.087,7.087
		c0,2.272,1.074,4.29,2.737,5.587C20.699,24.825,24.825,20.699,25.429,15.492z"/>
</g>
</svg>
