<?xml version="1.0" encoding="utf-8"?>
<!-- Generator: Adobe Illustrator 22.1.0, SVG Export Plug-In . SVG Version: 6.00 Build 0)  -->
<svg version="1.1" id="图层_1" xmlns="http://www.w3.org/2000/svg" xmlns:xlink="http://www.w3.org/1999/xlink" x="0px" y="0px"
	 viewBox="0 0 28.346 28.346" style="enable-background:new 0 0 28.346 28.346;" xml:space="preserve">
<style type="text/css">
	.st0{fill-opacity:0.5;stroke:#000000;stroke-width:2;stroke-miterlimit:10;}
	.st1{opacity:0.5;fill:none;stroke:#000000;stroke-width:2;stroke-miterlimit:10;enable-background:new    ;}
	.st2{opacity:0.5;stroke:#000000;stroke-width:2;stroke-miterlimit:10;enable-background:new    ;}
	.st3{fill:none;stroke:#000000;stroke-width:2;stroke-miterlimit:10;}
</style>
<g id="图层_2_1_">
	<circle class="st0" cx="11.339" cy="11.339" r="8.504"/>
	<circle class="st1" cx="17.008" cy="17.008" r="8.504"/>
</g>
<g id="图层_2_x5F_复制">
	<g>
		<path class="st2" d="M8.504,17.008c0,0.859,0.13,1.687,0.367,2.468c0.781,0.237,1.609,0.367,2.468,0.367
			c4.697,0,8.504-3.807,8.504-8.504c0-0.859-0.13-1.687-0.367-2.468c-0.781-0.237-1.609-0.367-2.468-0.367
			C12.311,8.504,8.504,12.311,8.504,17.008z"/>
	</g>
	<g>
		<path d="M8.504,17.008c0,0.859,0.13,1.687,0.367,2.468c0.781,0.237,1.609,0.367,2.468,0.367c4.697,0,8.504-3.807,8.504-8.504
			c0-0.859-0.13-1.687-0.367-2.468c-0.781-0.237-1.609-0.367-2.468-0.367C12.311,8.504,8.504,12.311,8.504,17.008z"/>
	</g>
	<g>
		<path class="st3" d="M8.504,17.008c0,0.859,0.13,1.687,0.367,2.468c0.781,0.237,1.609,0.367,2.468,0.367
			c4.697,0,8.504-3.807,8.504-8.504c0-0.859-0.13-1.687-0.367-2.468c-0.781-0.237-1.609-0.367-2.468-0.367
			C12.311,8.504,8.504,12.311,8.504,17.008z"/>
	</g>
</g>
</svg>
