<?xml version="1.0" encoding="utf-8"?>
<!-- Generator: Adobe Illustrator 22.1.0, SVG Export Plug-In . SVG Version: 6.00 Build 0)  -->
<svg version="1.1" xmlns="http://www.w3.org/2000/svg" xmlns:xlink="http://www.w3.org/1999/xlink" x="0px" y="0px"
	 viewBox="0 0 28.3 28.3" style="enable-background:new 0 0 28.3 28.3;" xml:space="preserve">
<style type="text/css">
	.st0{fill:none;stroke:#000000;stroke-width:2;stroke-miterlimit:10;}
	.st1{opacity:0.7;}
	.st2{display:none;}
</style>
<g id="图层_1">
	<path class="st0" d="M14.173,2.126c-6.626,0-12.047,5.421-12.047,12.047S7.547,26.22,14.173,26.22S26.22,20.799,26.22,14.173
		S20.799,2.126,14.173,2.126z"/>
	<line class="st0" x1="2.126" y1="14.173" x2="26.22" y2="14.173"/>
	<line class="st0" x1="14.173" y1="26.22" x2="14.173" y2="2.126"/>
</g>
<g id="图层_2">
	<g class="st1">
		<path class="st2" d="M14.173,14.173V26.22c6.626,0,12.047-5.421,12.047-12.047H14.173z"/>
		<path class="st2" d="M14.173,2.126c-6.626,0-12.047,5.421-12.047,12.047h12.047V2.126z"/>
		<path d="M26.22,14.173c0-6.626-5.421-12.047-12.047-12.047v12.047H26.22z"/>
		<path d="M2.126,14.173c0,6.626,5.421,12.047,12.047,12.047V14.173H2.126z"/>
	</g>
</g>
</svg>
