<?xml version="1.0" encoding="utf-8"?>
<!-- Generator: Adobe Illustrator 22.1.0, SVG Export Plug-In . SVG Version: 6.00 Build 0)  -->
<svg version="1.1" id="图层_1" xmlns="http://www.w3.org/2000/svg" xmlns:xlink="http://www.w3.org/1999/xlink" x="0px" y="0px"
	 viewBox="0 0 28.346 28.346" style="enable-background:new 0 0 28.346 28.346;" xml:space="preserve">
<style type="text/css">
	.st0{opacity:0.7;}
	.st1{fill:none;stroke:#000000;stroke-miterlimit:10;}
</style>
<path class="st0" d="M14.173,1.417c-7.045,0-12.756,5.711-12.756,12.756c0,7.045,5.711,12.756,12.756,12.756
	c7.045,0,12.756-5.711,12.756-12.756C26.929,7.128,21.218,1.417,14.173,1.417z M14.173,21.26c-3.914,0-7.087-3.173-7.087-7.087
	s3.173-7.087,7.087-7.087s7.087,3.173,7.087,7.087S18.087,21.26,14.173,21.26z"/>
<path class="st1" d="M14.173,1.417c-7.045,0-12.756,5.711-12.756,12.756c0,7.045,5.711,12.756,12.756,12.756
	c7.045,0,12.756-5.711,12.756-12.756C26.929,7.128,21.218,1.417,14.173,1.417z M14.173,21.26c-3.914,0-7.087-3.173-7.087-7.087
	s3.173-7.087,7.087-7.087s7.087,3.173,7.087,7.087S18.087,21.26,14.173,21.26z"/>
</svg>
