<?xml version="1.0" encoding="utf-8"?>
<!-- Generator: Adobe Illustrator 22.1.0, SVG Export Plug-In . SVG Version: 6.00 Build 0)  -->
<svg version="1.1" id="图层_1" xmlns="http://www.w3.org/2000/svg" xmlns:xlink="http://www.w3.org/1999/xlink" x="0px" y="0px"
	 viewBox="0 0 28.346 28.346" style="enable-background:new 0 0 28.346 28.346;" xml:space="preserve">
<style type="text/css">
	.st0{fill:none;stroke:#000000;stroke-width:2;stroke-miterlimit:10;}
	.st1{fill-opacity:0.5;stroke:#000000;stroke-width:2;stroke-linejoin:bevel;stroke-miterlimit:10;}
</style>
<g id="图层_2_1_">
	<circle class="st0" cx="11.339" cy="11.339" r="8.504"/>
</g>
<path class="st1" d="M8.504,17.008c0-4.697,3.807-8.504,8.504-8.504c0.859,0,1.687,0.13,2.468,0.367
	c-1.058-3.492-4.299-6.036-8.137-6.036c-4.697,0-8.504,3.807-8.504,8.504c0,3.838,2.543,7.079,6.036,8.137
	C8.634,18.695,8.504,17.867,8.504,17.008z"/>
<g>
	<g id="图层_2_2_">
		<g>
			<line class="st0" x1="11.338" y1="22.394" x2="11.338" y2="27.496"/>
		</g>
		<g>
			<line class="st0" x1="22.394" y1="11.338" x2="27.496" y2="11.338"/>
		</g>
		<g>
			<line class="st0" x1="22.764" y1="22.764" x2="19.155" y2="19.155"/>
		</g>
	</g>
	<g id="图层_2_3_">
		<g>
			<line class="st0" x1="15.57" y1="21.553" x2="17.522" y2="26.267"/>
		</g>
		<g>
			<line class="st0" x1="26.267" y1="17.523" x2="21.552" y2="15.57"/>
		</g>
	</g>
</g>
</svg>
