<?xml version="1.0" encoding="utf-8"?>
<!-- Generator: Adobe Illustrator 22.1.0, SVG Export Plug-In . SVG Version: 6.00 Build 0)  -->
<svg version="1.1" xmlns="http://www.w3.org/2000/svg" xmlns:xlink="http://www.w3.org/1999/xlink" x="0px" y="0px"
	 viewBox="0 0 28.346 28.346" style="enable-background:new 0 0 28.346 28.346;" xml:space="preserve">
<style type="text/css">
	.st0{fill:none;stroke:#000000;stroke-width:2;stroke-miterlimit:10;}
	.st1{opacity:0.5;}
	.st2{display:none;opacity:0.5;}
</style>
<g id="图层_1">
	
		<ellipse transform="matrix(0.7071 -0.7071 0.7071 0.7071 -5.8707 14.173)" class="st0" cx="14.173" cy="14.173" rx="11.339" ry="11.339"/>
</g>
<g id="图层_2">
	<path class="st1" d="M22.191,6.155c-2.052-2.052-4.887-3.321-8.018-3.321c-6.262,0-11.339,5.077-11.339,11.339
		c0,6.262,5.077,11.339,11.339,11.339c3.131,0,5.966-1.269,8.018-3.321l-8.018-8.018L22.191,6.155z"/>
	<path class="st2" d="M22.191,6.155l-8.018,8.018l8.018,8.018c2.052-2.052,3.321-4.887,3.321-8.018
		C25.512,11.042,24.243,8.207,22.191,6.155z"/>
	<path class="st0" d="M22.191,6.155l-8.018,8.018l8.018,8.018"/>
</g>
</svg>
