<?xml version="1.0" encoding="utf-8"?>
<!-- Generator: Adobe Illustrator 22.1.0, SVG Export Plug-In . SVG Version: 6.00 Build 0)  -->
<svg version="1.1" id="图层_1" xmlns="http://www.w3.org/2000/svg" xmlns:xlink="http://www.w3.org/1999/xlink" x="0px" y="0px"
	 viewBox="0 0 28.3 28.3" style="enable-background:new 0 0 28.3 28.3;" xml:space="preserve">
<style type="text/css">
	.st0{fill:none;stroke:#000000;stroke-miterlimit:10;}
	.st1{opacity:0.5;}
	.st2{display:none;fill:none;stroke:#000000;stroke-miterlimit:10;}
</style>
<circle class="st0" cx="14.2" cy="14.2" r="12.8"/>
<path class="st0" d="M23.251,23.251L5.149,5.149"/>
<path class="st0" d="M7.101,3.551l19.862,9.931"/>
<path class="st1" d="M1.4,14.2C1.4,21.269,7.131,27,14.2,27c3.535,0,6.735-1.433,9.051-3.749L5.149,5.149
	C2.833,7.465,1.4,10.665,1.4,14.2z"/>
<path class="st2" d="M26.964,13.482L7.101,3.551C6.399,4.02,5.744,4.554,5.149,5.149l18.102,18.102C25.567,20.935,27,17.735,27,14.2
	C27,13.958,26.977,13.721,26.964,13.482z"/>
<path class="st1" d="M14.2,1.4c-2.627,0-5.067,0.794-7.099,2.151l19.862,9.931C26.589,6.749,21.027,1.4,14.2,1.4z"/>
</svg>
