<?xml version="1.0" encoding="utf-8"?>
<!-- Generator: Adobe Illustrator 22.1.0, SVG Export Plug-In . SVG Version: 6.00 Build 0)  -->
<svg version="1.1" xmlns="http://www.w3.org/2000/svg" xmlns:xlink="http://www.w3.org/1999/xlink" x="0px" y="0px"
	 viewBox="0 0 28.3 28.3" style="enable-background:new 0 0 28.3 28.3;" xml:space="preserve">
<style type="text/css">
	.st0{fill:none;stroke:#000000;stroke-width:2;stroke-miterlimit:10;}
</style>
<g id="图层_1">
	<path class="st0" d="M14.173,2.126c-6.626,0-12.047,5.421-12.047,12.047S7.547,26.22,14.173,26.22S26.22,20.799,26.22,14.173
		S20.799,2.126,14.173,2.126z"/>
</g>
<g id="图层_2">
	<g>
		<path d="M18.189,16.837c0,0.627-0.116,1.172-0.348,1.635s-0.555,0.846-0.971,1.147s-0.911,0.525-1.485,0.672
			c-0.574,0.146-1.201,0.22-1.88,0.22c-0.604,0-1.187-0.035-1.749-0.105s-1.119-0.188-1.67-0.352v-2.136
			c0.27,0.094,0.551,0.182,0.844,0.264s0.587,0.154,0.883,0.215c0.296,0.063,0.59,0.11,0.883,0.146s0.577,0.053,0.853,0.053
			c0.41,0,0.759-0.035,1.046-0.105s0.521-0.167,0.703-0.29s0.313-0.27,0.396-0.439s0.123-0.357,0.123-0.563
			c0-0.281-0.081-0.517-0.242-0.707s-0.373-0.359-0.636-0.506c-0.264-0.146-0.564-0.278-0.9-0.396
			c-0.338-0.117-0.681-0.243-1.029-0.378c-0.349-0.135-0.691-0.287-1.028-0.457s-0.637-0.381-0.901-0.633
			c-0.264-0.252-0.476-0.552-0.637-0.9c-0.161-0.35-0.242-0.77-0.242-1.262c0-0.451,0.082-0.879,0.246-1.283
			s0.422-0.757,0.773-1.059s0.803-0.542,1.354-0.721s1.216-0.268,1.995-0.268c0.229,0,0.466,0.01,0.716,0.031
			c0.248,0.021,0.494,0.047,0.738,0.079c0.242,0.032,0.477,0.07,0.703,0.114c0.225,0.044,0.432,0.089,0.619,0.136v1.978
			c-0.188-0.07-0.393-0.135-0.615-0.193s-0.453-0.11-0.689-0.154c-0.238-0.044-0.477-0.078-0.717-0.101s-0.468-0.035-0.685-0.035
			c-0.381,0-0.703,0.031-0.967,0.092s-0.48,0.146-0.65,0.255s-0.293,0.242-0.369,0.4s-0.114,0.334-0.114,0.527
			c0,0.24,0.081,0.447,0.242,0.62c0.161,0.172,0.375,0.329,0.642,0.465c0.266,0.139,0.567,0.268,0.904,0.387
			c0.337,0.121,0.682,0.25,1.037,0.387c0.354,0.139,0.7,0.295,1.037,0.471s0.639,0.39,0.906,0.642
			c0.266,0.252,0.479,0.55,0.641,0.892C18.108,15.963,18.189,16.368,18.189,16.837z"/>
	</g>
</g>
</svg>
