<?xml version="1.0" encoding="utf-8"?>
<!-- Generator: Adobe Illustrator 22.1.0, SVG Export Plug-In . SVG Version: 6.00 Build 0)  -->
<svg version="1.1" id="图层_1" xmlns="http://www.w3.org/2000/svg" xmlns:xlink="http://www.w3.org/1999/xlink" x="0px" y="0px"
	 viewBox="0 0 28.3 28.3" style="enable-background:new 0 0 28.3 28.3;" xml:space="preserve">
<style type="text/css">
	.st0{fill:none;stroke:#000000;stroke-miterlimit:10;}
	.st1{opacity:0.5;enable-background:new    ;}
</style>
<g id="图层_1_1_">
	<circle class="st0" cx="14.2" cy="14.2" r="12.8"/>
	<circle class="st0" cx="19" cy="9.4" r="3.5"/>
	<circle class="st0" cx="10.8" cy="17.6" r="5.7"/>
</g>
<g id="图层_2_1_">
	<path class="st1" d="M14.2,1.4C7.1,1.4,1.4,7.1,1.4,14.2S7.1,27,14.2,27S27,21.3,27,14.2S21.3,1.4,14.2,1.4z M10.8,23.2
		c-3.1,0-5.7-2.5-5.7-5.7s2.5-5.7,5.7-5.7s5.7,2.5,5.7,5.7S13.9,23.2,10.8,23.2z M19,12.9c-2,0-3.5-1.6-3.5-3.5S17,5.8,19,5.8
		s3.5,1.6,3.5,3.5S20.9,12.9,19,12.9z"/>
</g>
</svg>
